<?xml version="1.0" encoding="UTF-8" standalone="no"?>
<!DOCTYPE svg PUBLIC "-//W3C//DTD SVG 1.1//EN"
 "http://www.w3.org/Graphics/SVG/1.1/DTD/svg11.dtd">
<!-- Generated by graphviz version 2.40.1 (20161225.0304)
 -->
<!-- Title: Tree Pages: 1 -->
<svg width="625pt" height="671pt"
 viewBox="0.00 0.00 625.00 671.00" xmlns="http://www.w3.org/2000/svg" xmlns:xlink="http://www.w3.org/1999/xlink">
<g id="graph0" class="graph" transform="scale(1 1) rotate(0) translate(4 667)">
<title>Tree</title>
<polygon fill="#ffffff" stroke="transparent" points="-4,4 -4,-667 621,-667 621,4 -4,4"/>
<!-- 0 -->
<g id="node1" class="node">
<title>0</title>
<path fill="#f7f3fd" stroke="#000000" d="M323.5,-663C323.5,-663 207.5,-663 207.5,-663 201.5,-663 195.5,-657 195.5,-651 195.5,-651 195.5,-592 195.5,-592 195.5,-586 201.5,-580 207.5,-580 207.5,-580 323.5,-580 323.5,-580 329.5,-580 335.5,-586 335.5,-592 335.5,-592 335.5,-651 335.5,-651 335.5,-657 329.5,-663 323.5,-663"/>
<text text-anchor="start" x="213" y="-647.8" font-family="Helvetica,sans-Serif" font-size="14.00" fill="#000000">petal.width ≤ 0.8</text>
<text text-anchor="start" x="227.5" y="-632.8" font-family="Helvetica,sans-Serif" font-size="14.00" fill="#000000">gini = 0.665</text>
<text text-anchor="start" x="217.5" y="-617.8" font-family="Helvetica,sans-Serif" font-size="14.00" fill="#000000">samples = 120</text>
<text text-anchor="start" x="203.5" y="-602.8" font-family="Helvetica,sans-Serif" font-size="14.00" fill="#000000">value = [39, 37, 44]</text>
<text text-anchor="start" x="238" y="-587.8" font-family="Helvetica,sans-Serif" font-size="14.00" fill="#000000">class = r</text>
</g>
<!-- 1 -->
<g id="node2" class="node">
<title>1</title>
<path fill="#e58139" stroke="#000000" d="M243,-536.5C243,-536.5 144,-536.5 144,-536.5 138,-536.5 132,-530.5 132,-524.5 132,-524.5 132,-480.5 132,-480.5 132,-474.5 138,-468.5 144,-468.5 144,-468.5 243,-468.5 243,-468.5 249,-468.5 255,-474.5 255,-480.5 255,-480.5 255,-524.5 255,-524.5 255,-530.5 249,-536.5 243,-536.5"/>
<text text-anchor="start" x="164" y="-521.3" font-family="Helvetica,sans-Serif" font-size="14.00" fill="#000000">gini = 0.0</text>
<text text-anchor="start" x="149.5" y="-506.3" font-family="Helvetica,sans-Serif" font-size="14.00" fill="#000000">samples = 39</text>
<text text-anchor="start" x="140" y="-491.3" font-family="Helvetica,sans-Serif" font-size="14.00" fill="#000000">value = [39, 0, 0]</text>
<text text-anchor="start" x="164.5" y="-476.3" font-family="Helvetica,sans-Serif" font-size="14.00" fill="#000000">class = v</text>
</g>
<!-- 0&#45;&gt;1 -->
<g id="edge1" class="edge">
<title>0&#45;&gt;1</title>
<path fill="none" stroke="#000000" d="M240.3179,-579.8796C233.5983,-568.7735 226.3243,-556.7513 219.5586,-545.5691"/>
<polygon fill="#000000" stroke="#000000" points="222.4332,-543.5589 214.262,-536.8149 216.4441,-547.1826 222.4332,-543.5589"/>
<text text-anchor="middle" x="208.2883" y="-557.3908" font-family="Helvetica,sans-Serif" font-size="14.00" fill="#000000">True</text>
</g>
<!-- 2 -->
<g id="node3" class="node">
<title>2</title>
<path fill="#ebe0fb" stroke="#000000" d="M392,-544C392,-544 285,-544 285,-544 279,-544 273,-538 273,-532 273,-532 273,-473 273,-473 273,-467 279,-461 285,-461 285,-461 392,-461 392,-461 398,-461 404,-467 404,-473 404,-473 404,-532 404,-532 404,-538 398,-544 392,-544"/>
<text text-anchor="start" x="282" y="-528.8" font-family="Helvetica,sans-Serif" font-size="14.00" fill="#000000">petal.width ≤ 1.65</text>
<text text-anchor="start" x="300.5" y="-513.8" font-family="Helvetica,sans-Serif" font-size="14.00" fill="#000000">gini = 0.496</text>
<text text-anchor="start" x="294.5" y="-498.8" font-family="Helvetica,sans-Serif" font-size="14.00" fill="#000000">samples = 81</text>
<text text-anchor="start" x="281" y="-483.8" font-family="Helvetica,sans-Serif" font-size="14.00" fill="#000000">value = [0, 37, 44]</text>
<text text-anchor="start" x="311" y="-468.8" font-family="Helvetica,sans-Serif" font-size="14.00" fill="#000000">class = r</text>
</g>
<!-- 0&#45;&gt;2 -->
<g id="edge2" class="edge">
<title>0&#45;&gt;2</title>
<path fill="none" stroke="#000000" d="M291.0319,-579.8796C296.391,-571.1434 302.0979,-561.8404 307.6282,-552.8253"/>
<polygon fill="#000000" stroke="#000000" points="310.6135,-554.6522 312.8592,-544.2981 304.6467,-550.9919 310.6135,-554.6522"/>
<text text-anchor="middle" x="318.6839" y="-564.9101" font-family="Helvetica,sans-Serif" font-size="14.00" fill="#000000">False</text>
</g>
<!-- 3 -->
<g id="node4" class="node">
<title>3</title>
<path fill="#4fe88f" stroke="#000000" d="M317,-425C317,-425 206,-425 206,-425 200,-425 194,-419 194,-413 194,-413 194,-354 194,-354 194,-348 200,-342 206,-342 206,-342 317,-342 317,-342 323,-342 329,-348 329,-354 329,-354 329,-413 329,-413 329,-419 323,-425 317,-425"/>
<text text-anchor="start" x="202" y="-409.8" font-family="Helvetica,sans-Serif" font-size="14.00" fill="#000000">petal.length ≤ 4.95</text>
<text text-anchor="start" x="228" y="-394.8" font-family="Helvetica,sans-Serif" font-size="14.00" fill="#000000">gini = 0.18</text>
<text text-anchor="start" x="217.5" y="-379.8" font-family="Helvetica,sans-Serif" font-size="14.00" fill="#000000">samples = 40</text>
<text text-anchor="start" x="208" y="-364.8" font-family="Helvetica,sans-Serif" font-size="14.00" fill="#000000">value = [0, 36, 4]</text>
<text text-anchor="start" x="232.5" y="-349.8" font-family="Helvetica,sans-Serif" font-size="14.00" fill="#000000">class = a</text>
</g>
<!-- 2&#45;&gt;3 -->
<g id="edge3" class="edge">
<title>2&#45;&gt;3</title>
<path fill="none" stroke="#000000" d="M311.5691,-460.8796C305.9163,-452.1434 299.8967,-442.8404 294.0634,-433.8253"/>
<polygon fill="#000000" stroke="#000000" points="296.9169,-431.7924 288.5458,-425.2981 291.0399,-435.5952 296.9169,-431.7924"/>
</g>
<!-- 10 -->
<g id="node11" class="node">
<title>10</title>
<path fill="#843ee6" stroke="#000000" d="M470,-425C470,-425 359,-425 359,-425 353,-425 347,-419 347,-413 347,-413 347,-354 347,-354 347,-348 353,-342 359,-342 359,-342 470,-342 470,-342 476,-342 482,-348 482,-354 482,-354 482,-413 482,-413 482,-419 476,-425 470,-425"/>
<text text-anchor="start" x="355" y="-409.8" font-family="Helvetica,sans-Serif" font-size="14.00" fill="#000000">petal.length ≤ 4.85</text>
<text text-anchor="start" x="376.5" y="-394.8" font-family="Helvetica,sans-Serif" font-size="14.00" fill="#000000">gini = 0.048</text>
<text text-anchor="start" x="370.5" y="-379.8" font-family="Helvetica,sans-Serif" font-size="14.00" fill="#000000">samples = 41</text>
<text text-anchor="start" x="361" y="-364.8" font-family="Helvetica,sans-Serif" font-size="14.00" fill="#000000">value = [0, 1, 40]</text>
<text text-anchor="start" x="387" y="-349.8" font-family="Helvetica,sans-Serif" font-size="14.00" fill="#000000">class = r</text>
</g>
<!-- 2&#45;&gt;10 -->
<g id="edge10" class="edge">
<title>2&#45;&gt;10</title>
<path fill="none" stroke="#000000" d="M365.0811,-460.8796C370.6605,-452.1434 376.6019,-442.8404 382.3595,-433.8253"/>
<polygon fill="#000000" stroke="#000000" points="385.3726,-435.6098 387.8054,-425.2981 379.4731,-431.8421 385.3726,-435.6098"/>
</g>
<!-- 4 -->
<g id="node5" class="node">
<title>4</title>
<path fill="#39e581" stroke="#000000" d="M163,-298.5C163,-298.5 64,-298.5 64,-298.5 58,-298.5 52,-292.5 52,-286.5 52,-286.5 52,-242.5 52,-242.5 52,-236.5 58,-230.5 64,-230.5 64,-230.5 163,-230.5 163,-230.5 169,-230.5 175,-236.5 175,-242.5 175,-242.5 175,-286.5 175,-286.5 175,-292.5 169,-298.5 163,-298.5"/>
<text text-anchor="start" x="84" y="-283.3" font-family="Helvetica,sans-Serif" font-size="14.00" fill="#000000">gini = 0.0</text>
<text text-anchor="start" x="69.5" y="-268.3" font-family="Helvetica,sans-Serif" font-size="14.00" fill="#000000">samples = 35</text>
<text text-anchor="start" x="60" y="-253.3" font-family="Helvetica,sans-Serif" font-size="14.00" fill="#000000">value = [0, 35, 0]</text>
<text text-anchor="start" x="84.5" y="-238.3" font-family="Helvetica,sans-Serif" font-size="14.00" fill="#000000">class = a</text>
</g>
<!-- 3&#45;&gt;4 -->
<g id="edge4" class="edge">
<title>3&#45;&gt;4</title>
<path fill="none" stroke="#000000" d="M209.7368,-341.8796C194.9669,-330.0038 178.8941,-317.0804 164.1892,-305.2568"/>
<polygon fill="#000000" stroke="#000000" points="166.1639,-302.3535 156.1774,-298.8149 161.7775,-307.8088 166.1639,-302.3535"/>
</g>
<!-- 5 -->
<g id="node6" class="node">
<title>5</title>
<path fill="#a06aec" stroke="#000000" d="M320,-306C320,-306 205,-306 205,-306 199,-306 193,-300 193,-294 193,-294 193,-235 193,-235 193,-229 199,-223 205,-223 205,-223 320,-223 320,-223 326,-223 332,-229 332,-235 332,-235 332,-294 332,-294 332,-300 326,-306 320,-306"/>
<text text-anchor="start" x="201" y="-290.8" font-family="Helvetica,sans-Serif" font-size="14.00" fill="#000000">sepal.length ≤ 6.05</text>
<text text-anchor="start" x="229" y="-275.8" font-family="Helvetica,sans-Serif" font-size="14.00" fill="#000000">gini = 0.32</text>
<text text-anchor="start" x="223" y="-260.8" font-family="Helvetica,sans-Serif" font-size="14.00" fill="#000000">samples = 5</text>
<text text-anchor="start" x="213" y="-245.8" font-family="Helvetica,sans-Serif" font-size="14.00" fill="#000000">value = [0, 1, 4]</text>
<text text-anchor="start" x="235" y="-230.8" font-family="Helvetica,sans-Serif" font-size="14.00" fill="#000000">class = r</text>
</g>
<!-- 3&#45;&gt;5 -->
<g id="edge5" class="edge">
<title>3&#45;&gt;5</title>
<path fill="none" stroke="#000000" d="M261.8498,-341.8796C261.9186,-333.6838 261.9917,-324.9891 262.063,-316.5013"/>
<polygon fill="#000000" stroke="#000000" points="265.5645,-316.3272 262.1488,-306.2981 258.5648,-316.2683 265.5645,-316.3272"/>
</g>
<!-- 6 -->
<g id="node7" class="node">
<title>6</title>
<path fill="#ffffff" stroke="#000000" d="M179,-187C179,-187 68,-187 68,-187 62,-187 56,-181 56,-175 56,-175 56,-116 56,-116 56,-110 62,-104 68,-104 68,-104 179,-104 179,-104 185,-104 191,-110 191,-116 191,-116 191,-175 191,-175 191,-181 185,-187 179,-187"/>
<text text-anchor="start" x="64" y="-171.8" font-family="Helvetica,sans-Serif" font-size="14.00" fill="#000000">petal.length ≤ 5.05</text>
<text text-anchor="start" x="94" y="-156.8" font-family="Helvetica,sans-Serif" font-size="14.00" fill="#000000">gini = 0.5</text>
<text text-anchor="start" x="84" y="-141.8" font-family="Helvetica,sans-Serif" font-size="14.00" fill="#000000">samples = 2</text>
<text text-anchor="start" x="74" y="-126.8" font-family="Helvetica,sans-Serif" font-size="14.00" fill="#000000">value = [0, 1, 1]</text>
<text text-anchor="start" x="94.5" y="-111.8" font-family="Helvetica,sans-Serif" font-size="14.00" fill="#000000">class = a</text>
</g>
<!-- 5&#45;&gt;6 -->
<g id="edge6" class="edge">
<title>5&#45;&gt;6</title>
<path fill="none" stroke="#000000" d="M213.8845,-222.8796C202.9438,-213.513 191.2418,-203.4948 180.0092,-193.8784"/>
<polygon fill="#000000" stroke="#000000" points="182.1956,-191.1428 172.323,-187.2981 177.6432,-196.4603 182.1956,-191.1428"/>
</g>
<!-- 9 -->
<g id="node10" class="node">
<title>9</title>
<path fill="#8139e5" stroke="#000000" d="M312,-179.5C312,-179.5 221,-179.5 221,-179.5 215,-179.5 209,-173.5 209,-167.5 209,-167.5 209,-123.5 209,-123.5 209,-117.5 215,-111.5 221,-111.5 221,-111.5 312,-111.5 312,-111.5 318,-111.5 324,-117.5 324,-123.5 324,-123.5 324,-167.5 324,-167.5 324,-173.5 318,-179.5 312,-179.5"/>
<text text-anchor="start" x="237" y="-164.3" font-family="Helvetica,sans-Serif" font-size="14.00" fill="#000000">gini = 0.0</text>
<text text-anchor="start" x="227" y="-149.3" font-family="Helvetica,sans-Serif" font-size="14.00" fill="#000000">samples = 3</text>
<text text-anchor="start" x="217" y="-134.3" font-family="Helvetica,sans-Serif" font-size="14.00" fill="#000000">value = [0, 0, 3]</text>
<text text-anchor="start" x="239" y="-119.3" font-family="Helvetica,sans-Serif" font-size="14.00" fill="#000000">class = r</text>
</g>
<!-- 5&#45;&gt;9 -->
<g id="edge9" class="edge">
<title>5&#45;&gt;9</title>
<path fill="none" stroke="#000000" d="M263.899,-222.8796C264.2575,-212.2134 264.6445,-200.7021 265.0075,-189.9015"/>
<polygon fill="#000000" stroke="#000000" points="268.5085,-189.9269 265.3466,-179.8149 261.5125,-189.6917 268.5085,-189.9269"/>
</g>
<!-- 7 -->
<g id="node8" class="node">
<title>7</title>
<path fill="#8139e5" stroke="#000000" d="M103,-68C103,-68 12,-68 12,-68 6,-68 0,-62 0,-56 0,-56 0,-12 0,-12 0,-6 6,0 12,0 12,0 103,0 103,0 109,0 115,-6 115,-12 115,-12 115,-56 115,-56 115,-62 109,-68 103,-68"/>
<text text-anchor="start" x="28" y="-52.8" font-family="Helvetica,sans-Serif" font-size="14.00" fill="#000000">gini = 0.0</text>
<text text-anchor="start" x="18" y="-37.8" font-family="Helvetica,sans-Serif" font-size="14.00" fill="#000000">samples = 1</text>
<text text-anchor="start" x="8" y="-22.8" font-family="Helvetica,sans-Serif" font-size="14.00" fill="#000000">value = [0, 0, 1]</text>
<text text-anchor="start" x="30" y="-7.8" font-family="Helvetica,sans-Serif" font-size="14.00" fill="#000000">class = r</text>
</g>
<!-- 6&#45;&gt;7 -->
<g id="edge7" class="edge">
<title>6&#45;&gt;7</title>
<path fill="none" stroke="#000000" d="M98.924,-103.9815C93.7014,-95.1585 88.1771,-85.8258 82.9237,-76.9506"/>
<polygon fill="#000000" stroke="#000000" points="85.8874,-75.0863 77.7816,-68.2637 79.8636,-78.652 85.8874,-75.0863"/>
</g>
<!-- 8 -->
<g id="node9" class="node">
<title>8</title>
<path fill="#39e581" stroke="#000000" d="M236,-68C236,-68 145,-68 145,-68 139,-68 133,-62 133,-56 133,-56 133,-12 133,-12 133,-6 139,0 145,0 145,0 236,0 236,0 242,0 248,-6 248,-12 248,-12 248,-56 248,-56 248,-62 242,-68 236,-68"/>
<text text-anchor="start" x="161" y="-52.8" font-family="Helvetica,sans-Serif" font-size="14.00" fill="#000000">gini = 0.0</text>
<text text-anchor="start" x="151" y="-37.8" font-family="Helvetica,sans-Serif" font-size="14.00" fill="#000000">samples = 1</text>
<text text-anchor="start" x="141" y="-22.8" font-family="Helvetica,sans-Serif" font-size="14.00" fill="#000000">value = [0, 1, 0]</text>
<text text-anchor="start" x="161.5" y="-7.8" font-family="Helvetica,sans-Serif" font-size="14.00" fill="#000000">class = a</text>
</g>
<!-- 6&#45;&gt;8 -->
<g id="edge8" class="edge">
<title>6&#45;&gt;8</title>
<path fill="none" stroke="#000000" d="M148.4483,-103.9815C153.7501,-95.1585 159.3581,-85.8258 164.6911,-76.9506"/>
<polygon fill="#000000" stroke="#000000" points="167.7605,-78.638 169.9111,-68.2637 161.7604,-75.0325 167.7605,-78.638"/>
</g>
<!-- 11 -->
<g id="node12" class="node">
<title>11</title>
<path fill="#ab7bee" stroke="#000000" d="M464,-306C464,-306 363,-306 363,-306 357,-306 351,-300 351,-294 351,-294 351,-235 351,-235 351,-229 357,-223 363,-223 363,-223 464,-223 464,-223 470,-223 476,-229 476,-235 476,-235 476,-294 476,-294 476,-300 470,-306 464,-306"/>
<text text-anchor="start" x="359" y="-290.8" font-family="Helvetica,sans-Serif" font-size="14.00" fill="#000000">sepal.width ≤ 3.1</text>
<text text-anchor="start" x="375.5" y="-275.8" font-family="Helvetica,sans-Serif" font-size="14.00" fill="#000000">gini = 0.375</text>
<text text-anchor="start" x="374" y="-260.8" font-family="Helvetica,sans-Serif" font-size="14.00" fill="#000000">samples = 4</text>
<text text-anchor="start" x="364" y="-245.8" font-family="Helvetica,sans-Serif" font-size="14.00" fill="#000000">value = [0, 1, 3]</text>
<text text-anchor="start" x="386" y="-230.8" font-family="Helvetica,sans-Serif" font-size="14.00" fill="#000000">class = r</text>
</g>
<!-- 10&#45;&gt;11 -->
<g id="edge11" class="edge">
<title>10&#45;&gt;11</title>
<path fill="none" stroke="#000000" d="M414.1502,-341.8796C414.0814,-333.6838 414.0083,-324.9891 413.937,-316.5013"/>
<polygon fill="#000000" stroke="#000000" points="417.4352,-316.2683 413.8512,-306.2981 410.4355,-316.3272 417.4352,-316.2683"/>
</g>
<!-- 14 -->
<g id="node15" class="node">
<title>14</title>
<path fill="#8139e5" stroke="#000000" d="M605,-298.5C605,-298.5 506,-298.5 506,-298.5 500,-298.5 494,-292.5 494,-286.5 494,-286.5 494,-242.5 494,-242.5 494,-236.5 500,-230.5 506,-230.5 506,-230.5 605,-230.5 605,-230.5 611,-230.5 617,-236.5 617,-242.5 617,-242.5 617,-286.5 617,-286.5 617,-292.5 611,-298.5 605,-298.5"/>
<text text-anchor="start" x="526" y="-283.3" font-family="Helvetica,sans-Serif" font-size="14.00" fill="#000000">gini = 0.0</text>
<text text-anchor="start" x="511.5" y="-268.3" font-family="Helvetica,sans-Serif" font-size="14.00" fill="#000000">samples = 37</text>
<text text-anchor="start" x="502" y="-253.3" font-family="Helvetica,sans-Serif" font-size="14.00" fill="#000000">value = [0, 0, 37]</text>
<text text-anchor="start" x="528" y="-238.3" font-family="Helvetica,sans-Serif" font-size="14.00" fill="#000000">class = r</text>
</g>
<!-- 10&#45;&gt;14 -->
<g id="edge14" class="edge">
<title>10&#45;&gt;14</title>
<path fill="none" stroke="#000000" d="M463.815,-341.8796C477.756,-330.1138 492.9154,-317.3197 506.8188,-305.5855"/>
<polygon fill="#000000" stroke="#000000" points="509.4564,-307.9394 514.8411,-298.8149 504.9416,-302.5899 509.4564,-307.9394"/>
</g>
<!-- 12 -->
<g id="node13" class="node">
<title>12</title>
<path fill="#8139e5" stroke="#000000" d="M454,-179.5C454,-179.5 363,-179.5 363,-179.5 357,-179.5 351,-173.5 351,-167.5 351,-167.5 351,-123.5 351,-123.5 351,-117.5 357,-111.5 363,-111.5 363,-111.5 454,-111.5 454,-111.5 460,-111.5 466,-117.5 466,-123.5 466,-123.5 466,-167.5 466,-167.5 466,-173.5 460,-179.5 454,-179.5"/>
<text text-anchor="start" x="379" y="-164.3" font-family="Helvetica,sans-Serif" font-size="14.00" fill="#000000">gini = 0.0</text>
<text text-anchor="start" x="369" y="-149.3" font-family="Helvetica,sans-Serif" font-size="14.00" fill="#000000">samples = 3</text>
<text text-anchor="start" x="359" y="-134.3" font-family="Helvetica,sans-Serif" font-size="14.00" fill="#000000">value = [0, 0, 3]</text>
<text text-anchor="start" x="381" y="-119.3" font-family="Helvetica,sans-Serif" font-size="14.00" fill="#000000">class = r</text>
</g>
<!-- 11&#45;&gt;12 -->
<g id="edge12" class="edge">
<title>11&#45;&gt;12</title>
<path fill="none" stroke="#000000" d="M411.7512,-222.8796C411.3031,-212.2134 410.8194,-200.7021 410.3656,-189.9015"/>
<polygon fill="#000000" stroke="#000000" points="413.8586,-189.6592 409.9418,-179.8149 406.8648,-189.9531 413.8586,-189.6592"/>
</g>
<!-- 13 -->
<g id="node14" class="node">
<title>13</title>
<path fill="#39e581" stroke="#000000" d="M587,-179.5C587,-179.5 496,-179.5 496,-179.5 490,-179.5 484,-173.5 484,-167.5 484,-167.5 484,-123.5 484,-123.5 484,-117.5 490,-111.5 496,-111.5 496,-111.5 587,-111.5 587,-111.5 593,-111.5 599,-117.5 599,-123.5 599,-123.5 599,-167.5 599,-167.5 599,-173.5 593,-179.5 587,-179.5"/>
<text text-anchor="start" x="512" y="-164.3" font-family="Helvetica,sans-Serif" font-size="14.00" fill="#000000">gini = 0.0</text>
<text text-anchor="start" x="502" y="-149.3" font-family="Helvetica,sans-Serif" font-size="14.00" fill="#000000">samples = 1</text>
<text text-anchor="start" x="492" y="-134.3" font-family="Helvetica,sans-Serif" font-size="14.00" fill="#000000">value = [0, 1, 0]</text>
<text text-anchor="start" x="512.5" y="-119.3" font-family="Helvetica,sans-Serif" font-size="14.00" fill="#000000">class = a</text>
</g>
<!-- 11&#45;&gt;13 -->
<g id="edge13" class="edge">
<title>11&#45;&gt;13</title>
<path fill="none" stroke="#000000" d="M458.2682,-222.8796C470.8056,-211.2237 484.4284,-198.5587 496.953,-186.9148"/>
<polygon fill="#000000" stroke="#000000" points="499.6491,-189.1872 504.5898,-179.8149 494.8828,-184.0605 499.6491,-189.1872"/>
</g>
</g>
</svg>
